M48
; DRILL file {KiCad 7.0.1} date Sun 18 Jun 2023 10:29:25 PM CEST
; FORMAT={-:-/ absolute / metric / decimal}
; #@! TF.CreationDate,2023-06-18T22:29:25+02:00
; #@! TF.GenerationSoftware,Kicad,Pcbnew,7.0.1
; #@! TF.FileFunction,Plated,1,2,PTH
FMAT,2
METRIC
; #@! TA.AperFunction,Plated,PTH,ViaDrill
T1C0.400
; #@! TA.AperFunction,Plated,PTH,ComponentDrill
T2C0.600
; #@! TA.AperFunction,Plated,PTH,ComponentDrill
T3C0.800
; #@! TA.AperFunction,Plated,PTH,ComponentDrill
T4C0.900
; #@! TA.AperFunction,Plated,PTH,ComponentDrill
T5C0.920
; #@! TA.AperFunction,Plated,PTH,ComponentDrill
T6C1.000
; #@! TA.AperFunction,Plated,PTH,ComponentDrill
T7C1.100
; #@! TA.AperFunction,Plated,PTH,ComponentDrill
T8C1.200
; #@! TA.AperFunction,Plated,PTH,ComponentDrill
T9C1.300
; #@! TA.AperFunction,Plated,PTH,ComponentDrill
T10C1.600
; #@! TA.AperFunction,Plated,PTH,ComponentDrill
T11C2.330
; #@! TA.AperFunction,Plated,PTH,ComponentDrill
T12C3.200
; #@! TA.AperFunction,Plated,PTH,ComponentDrill
T13C3.500
%
G90
G05
T1
X104.14Y-58.42
X105.41Y-19.05
X105.41Y-20.32
X105.41Y-22.098
X105.41Y-23.622
X105.41Y-25.146
X105.41Y-26.67
X105.41Y-28.194
X105.41Y-29.718
X105.41Y-31.242
X105.41Y-32.766
X105.41Y-34.29
X105.41Y-35.814
X106.68Y-19.05
X106.68Y-20.32
X106.68Y-22.098
X106.68Y-23.622
X106.68Y-25.146
X106.68Y-26.67
X106.68Y-28.194
X106.68Y-29.718
X106.68Y-31.242
X106.68Y-32.766
X106.68Y-34.29
X106.68Y-35.814
X106.68Y-54.61
X106.68Y-55.88
X107.95Y-19.05
X107.95Y-20.32
X107.95Y-22.098
X107.95Y-23.622
X107.95Y-25.146
X107.95Y-26.67
X107.95Y-28.194
X107.95Y-29.718
X107.95Y-31.242
X107.95Y-32.766
X107.95Y-34.29
X107.95Y-35.814
X109.474Y-19.05
X109.474Y-20.32
X109.474Y-28.194
X109.474Y-29.718
X109.474Y-31.242
X109.474Y-32.766
X109.474Y-34.29
X109.474Y-35.814
X110.998Y-19.05
X110.998Y-20.32
X110.998Y-28.194
X110.998Y-29.718
X110.998Y-31.242
X110.998Y-32.766
X110.998Y-34.29
X110.998Y-35.814
X111.125Y-58.42
X111.125Y-59.69
X111.76Y-54.61
X111.76Y-68.58
X111.76Y-73.66
X111.76Y-78.74
X112.395Y-57.15
X112.522Y-19.05
X112.522Y-20.32
X112.522Y-28.194
X112.522Y-29.718
X112.522Y-31.242
X112.522Y-32.766
X112.522Y-34.29
X112.522Y-35.814
X114.046Y-19.05
X114.046Y-20.32
X114.046Y-28.194
X114.046Y-29.718
X114.046Y-31.242
X114.046Y-32.766
X114.046Y-34.29
X114.046Y-35.814
X115.57Y-19.05
X115.57Y-20.32
X115.57Y-22.098
X115.57Y-23.622
X115.57Y-25.146
X115.57Y-26.67
X115.57Y-28.194
X115.57Y-29.718
X115.57Y-31.242
X115.57Y-32.766
X115.57Y-34.29
X115.57Y-35.814
X116.205Y-58.42
X116.84Y-19.05
X116.84Y-20.32
X116.84Y-22.098
X116.84Y-23.622
X116.84Y-25.146
X116.84Y-26.67
X116.84Y-28.194
X116.84Y-29.718
X116.84Y-31.242
X116.84Y-32.766
X116.84Y-34.29
X116.84Y-35.814
X116.84Y-67.31
X116.84Y-78.74
X118.11Y-19.05
X118.11Y-20.32
X118.11Y-22.098
X118.11Y-23.622
X118.11Y-25.146
X118.11Y-26.67
X118.11Y-28.194
X118.11Y-29.718
X118.11Y-31.242
X118.11Y-32.766
X118.11Y-34.29
X118.11Y-35.814
X120.904Y-56.388
X121.92Y-83.185
X122.682Y-19.05
X122.682Y-20.32
X122.682Y-21.59
X122.682Y-22.86
X122.682Y-24.13
X122.682Y-25.4
X122.682Y-26.67
X122.682Y-27.94
X122.682Y-29.21
X122.682Y-30.48
X122.682Y-31.75
X122.682Y-33.02
X122.682Y-34.29
X122.682Y-35.56
X123.19Y-69.85
X124.206Y-19.05
X124.206Y-20.32
X124.206Y-21.59
X124.206Y-22.86
X124.206Y-24.13
X124.206Y-25.4
X124.206Y-26.67
X124.206Y-27.94
X124.206Y-29.21
X124.206Y-30.48
X124.206Y-31.75
X124.206Y-33.02
X124.206Y-34.29
X124.206Y-35.56
X125.73Y-19.05
X125.73Y-20.32
X125.73Y-21.59
X125.73Y-22.86
X125.73Y-24.13
X125.73Y-25.4
X125.73Y-26.67
X125.73Y-27.94
X125.73Y-29.21
X125.73Y-30.48
X125.73Y-31.75
X125.73Y-33.02
X125.73Y-34.29
X125.73Y-35.56
X127.508Y-19.05
X127.508Y-20.32
X127.508Y-21.59
X127.508Y-22.86
X127.508Y-24.13
X127.508Y-31.75
X127.508Y-33.02
X127.508Y-34.29
X127.508Y-35.56
X128.27Y-40.64
X129.032Y-19.05
X129.032Y-20.32
X129.032Y-21.59
X129.032Y-22.86
X129.032Y-24.13
X129.032Y-31.75
X129.032Y-33.02
X129.032Y-34.29
X129.032Y-35.56
X130.175Y-45.085
X130.556Y-19.05
X130.556Y-20.32
X130.556Y-21.59
X130.556Y-22.86
X130.556Y-24.13
X130.556Y-31.75
X130.556Y-33.02
X130.556Y-34.29
X130.556Y-35.56
X132.08Y-19.05
X132.08Y-20.32
X132.08Y-21.59
X132.08Y-22.86
X132.08Y-24.13
X132.08Y-31.75
X132.08Y-33.02
X132.08Y-34.29
X132.08Y-35.56
X133.604Y-19.05
X133.604Y-20.32
X133.604Y-21.59
X133.604Y-22.86
X133.604Y-24.13
X133.604Y-25.654
X133.604Y-27.178
X133.604Y-28.702
X133.604Y-30.226
X133.604Y-31.75
X133.604Y-33.02
X133.604Y-34.29
X133.604Y-35.56
X134.62Y-41.91
X135.128Y-19.05
X135.128Y-20.32
X135.128Y-21.59
X135.128Y-22.86
X135.128Y-24.13
X135.128Y-25.654
X135.128Y-27.178
X135.128Y-28.702
X135.128Y-30.226
X135.128Y-31.75
X135.128Y-33.02
X135.128Y-34.29
X135.128Y-35.56
X136.652Y-19.05
X136.652Y-20.32
X136.652Y-21.59
X136.652Y-22.86
X136.652Y-24.13
X136.652Y-25.654
X136.652Y-27.178
X136.652Y-28.702
X136.652Y-30.226
X136.652Y-31.75
X136.652Y-33.02
X136.652Y-34.29
X136.652Y-35.56
X138.176Y-19.05
X138.176Y-20.32
X138.176Y-21.59
X138.176Y-22.86
X138.176Y-24.13
X138.176Y-25.654
X138.176Y-27.178
X138.176Y-28.702
X138.176Y-30.226
X138.176Y-31.75
X138.176Y-33.02
X138.176Y-34.29
X138.176Y-35.56
X139.7Y-19.05
X139.7Y-20.32
X139.7Y-21.59
X139.7Y-22.86
X139.7Y-24.13
X139.7Y-25.654
X139.7Y-27.178
X139.7Y-28.702
X139.7Y-30.226
X139.7Y-31.75
X139.7Y-33.02
X139.7Y-34.29
X139.7Y-35.56
X141.224Y-19.05
X141.224Y-20.32
X141.224Y-21.59
X141.224Y-22.86
X141.224Y-24.13
X141.224Y-25.654
X141.224Y-27.178
X141.224Y-28.702
X141.224Y-30.226
X141.224Y-31.75
X141.224Y-33.02
X141.224Y-34.29
X141.224Y-35.56
X144.78Y-52.07
X153.67Y-51.435
X155.575Y-57.15
X155.575Y-59.69
X157.48Y-51.435
X157.48Y-73.66
X160.02Y-35.56
X162.56Y-74.93
X164.465Y-33.655
X165.1Y-72.644
X166.116Y-70.104
X166.37Y-27.305
X167.132Y-75.184
X167.64Y-42.545
X167.64Y-50.165
X168.91Y-55.88
X172.085Y-55.88
X179.07Y-54.61
X180.34Y-43.18
T2
X110.95Y-48.24
X112.95Y-48.24
X153.76Y-26.65
X153.76Y-28.65
T3
X97.79Y-60.96
X97.79Y-68.58
X99.06Y-37.846
X99.06Y-45.466
X104.06Y-60.96
X104.06Y-68.58
X106.6Y-45.7
X106.6Y-50.7
X109.14Y-73.64
X109.14Y-81.26
X114.22Y-73.64
X114.22Y-81.26
X116.84Y-45.72
X116.84Y-50.72
X119.3Y-73.64
X119.3Y-81.26
X120.57Y-58.4
X121.793Y-66.04
X121.92Y-50.78
X124.333Y-66.04
X124.38Y-73.64
X124.38Y-81.26
X124.46Y-50.78
X126.873Y-66.04
X127.0Y-50.78
X128.19Y-58.4
X133.26Y-48.27
X133.26Y-55.89
X133.27Y-68.58
X134.54Y-73.64
X134.54Y-81.26
X135.8Y-48.27
X135.8Y-55.89
X137.1Y-41.91
X138.34Y-48.27
X138.34Y-55.89
X139.62Y-73.64
X139.62Y-81.26
X140.88Y-48.27
X140.88Y-55.89
X140.89Y-68.58
X144.7Y-49.57
X144.7Y-54.57
X144.72Y-41.91
X147.955Y-38.08
X151.13Y-63.5
X151.13Y-71.12
X151.17Y-33.02
X151.3Y-22.84
X152.32Y-53.32
X152.32Y-55.86
X152.32Y-58.4
X155.575Y-38.08
X156.17Y-33.02
X156.3Y-22.84
X157.48Y-54.61
X158.69Y-38.08
X162.5Y-24.11
X162.5Y-31.73
X165.1Y-54.61
X166.31Y-38.08
X171.39Y-33.0
X171.39Y-35.54
X171.39Y-38.08
X171.45Y-45.72
X171.45Y-48.26
X171.45Y-50.8
X177.72Y-31.73
X177.72Y-39.35
X177.72Y-44.43
X177.72Y-52.05
T4
X99.06Y-49.53
X99.06Y-52.07
X184.09Y-35.54
X184.09Y-48.24
X186.63Y-35.54
X186.63Y-48.24
T5
X171.47Y-81.052
X171.47Y-83.052
X173.97Y-81.052
X173.97Y-83.052
T6
X99.06Y-74.22
X99.06Y-80.72
X103.56Y-74.22
X103.56Y-80.72
X150.07Y-42.45
X150.07Y-48.95
X152.32Y-76.18
X154.57Y-42.45
X154.57Y-48.95
X154.86Y-76.18
X157.4Y-76.18
X157.42Y-66.02
X157.42Y-68.56
X157.42Y-71.1
X159.94Y-76.18
X159.96Y-66.02
X159.96Y-68.56
X159.96Y-71.1
X160.25Y-42.45
X160.25Y-48.95
X164.75Y-42.45
X164.75Y-48.95
X169.47Y-22.515
X169.47Y-27.015
X175.97Y-22.515
X175.97Y-27.015
T7
X109.14Y-40.54
X111.68Y-40.54
X114.22Y-40.54
X146.177Y-25.4
X146.177Y-27.94
X146.177Y-30.48
T8
X129.46Y-71.1
X129.46Y-81.26
X132.0Y-62.23
X142.16Y-62.23
X144.7Y-71.1
X144.7Y-81.26
T9
X109.14Y-88.88
X114.22Y-88.88
X119.3Y-88.88
X124.38Y-88.88
X129.46Y-88.88
X134.54Y-88.88
X139.62Y-88.88
X144.7Y-88.88
T10
X153.67Y-88.9
X158.75Y-88.9
T11
X166.7Y-85.763
X178.74Y-85.763
T12
X98.98Y-22.84
X99.0Y-91.42
X185.36Y-22.84
X185.36Y-91.42
T13
X111.68Y-23.88
X129.517Y-27.94
T0
M30
