  0
SECTION
  2
HEADER
  9
$ANGBASE
  50
0.0
  9
$ANGDIR
  70
1
  9
$MEASUREMENT
  70
1
  0
ENDSEC
  0
SECTION
  2
TABLES
  0
TABLE
  2
LTYPE
  70
4
  0
LTYPE
  5
40F
  2
CONTINUOUS
  70
0
  3
Solid line
  72
65
  73
0
  40
0.0
  0
LTYPE
  5
410
  2
DASHDOT
 70
0
  3
Dash Dot ____ _ ____ _
 72
65
 73
4
 40
2.0
 49
1.25
 49
-0.25
 49
0.25
 49
-0.25
  0
LTYPE
  5
411
  2
DASHED
 70
0
  3
Dashed __ __ __ __ __
 72
65
 73
2
 40
0.75
 49
0.5
 49
-0.25
  0
LTYPE
  5
43B
  2
DOTTED
 70
0
  3
Dotted .  .  .  .
 72
65
 73
2
 40
0.2
 49
0.0
 49
-0.2
  0
ENDTAB
  0
TABLE
  2
STYLE
  70
4
  0
STYLE
  2
KICAD
  70
0
  40
0
  41
1
  42
1
  50
0
  71
0
  3
isocp.shx
  0
STYLE
  2
KICADB
  70
0
  40
0
  41
1
  42
1
  50
0
  71
0
  3
isocp.shx
  0
STYLE
  2
KICADI
  70
0
  40
0
  41
1
  42
1
  50
15
  71
0
  3
isocp.shx
  0
STYLE
  2
KICADBI
  70
0
  40
0
  41
1
  42
1
  50
15
  71
0
  3
isocp.shx
  0
ENDTAB
  0
TABLE
  2
LAYER
  70
1
  0
LAYER
  2
BLACK
  70
0
  62
7
  6
CONTINUOUS
  0
ENDTAB
  0
ENDSEC
  0
SECTION
  2
ENTITIES
0
LINE
8
BLACK
6
CONTINUOUS
10
185.36
20
-96.5
11
99
21
-96.5
0
ARC
8
BLACK
10
99
20
-22.84
40
5.08
50
90
51
180
0
LINE
8
BLACK
6
CONTINUOUS
10
99
20
-17.76
11
185.36
21
-17.76
0
ARC
8
BLACK
10
99
20
-91.42
40
5.08
50
-180
51
-90
0
ARC
8
BLACK
10
185.36
20
-91.42
40
5.08
50
-90
51
-0
0
ARC
8
BLACK
10
185.36
20
-22.84
40
5.08
50
-0
51
90
0
LINE
8
BLACK
6
CONTINUOUS
10
190.44
20
-22.84
11
190.44
21
-91.42
0
LINE
8
BLACK
6
CONTINUOUS
10
93.92
20
-91.42
11
93.92
21
-22.84
0
LINE
8
BLACK
6
CONTINUOUS
10
96.3462
20
-99.6752
11
96.3462
21
-97.6752
0
LINE
8
BLACK
6
CONTINUOUS
10
96.3462
20
-97.6752
11
96.8224
21
-97.6752
0
LINE
8
BLACK
6
CONTINUOUS
10
96.8224
20
-97.6752
11
97.1081
21
-97.7705
0
LINE
8
BLACK
6
CONTINUOUS
10
97.1081
20
-97.7705
11
97.2986
21
-97.961
0
LINE
8
BLACK
6
CONTINUOUS
10
97.2986
20
-97.961
11
97.3938
21
-98.1514
0
LINE
8
BLACK
6
CONTINUOUS
10
97.3938
20
-98.1514
11
97.489
21
-98.5324
0
LINE
8
BLACK
6
CONTINUOUS
10
97.489
20
-98.5324
11
97.489
21
-98.8181
0
LINE
8
BLACK
6
CONTINUOUS
10
97.489
20
-98.8181
11
97.3938
21
-99.199
0
LINE
8
BLACK
6
CONTINUOUS
10
97.3938
20
-99.199
11
97.2986
21
-99.3895
0
LINE
8
BLACK
6
CONTINUOUS
10
97.2986
20
-99.3895
11
97.1081
21
-99.58
0
LINE
8
BLACK
6
CONTINUOUS
10
97.1081
20
-99.58
11
96.8224
21
-99.6752
0
LINE
8
BLACK
6
CONTINUOUS
10
96.8224
20
-99.6752
11
96.3462
21
-99.6752
0
LINE
8
BLACK
6
CONTINUOUS
10
98.3462
20
-99.6752
11
98.3462
21
-98.3419
0
LINE
8
BLACK
6
CONTINUOUS
10
98.3462
20
-98.7229
11
98.4414
21
-98.5324
0
LINE
8
BLACK
6
CONTINUOUS
10
98.4414
20
-98.5324
11
98.5367
21
-98.4371
0
LINE
8
BLACK
6
CONTINUOUS
10
98.5367
20
-98.4371
11
98.7271
21
-98.3419
0
LINE
8
BLACK
6
CONTINUOUS
10
98.7271
20
-98.3419
11
98.9176
21
-98.3419
0
LINE
8
BLACK
6
CONTINUOUS
10
99.5843
20
-99.6752
11
99.5843
21
-98.3419
0
LINE
8
BLACK
6
CONTINUOUS
10
99.5843
20
-97.6752
11
99.489
21
-97.7705
0
LINE
8
BLACK
6
CONTINUOUS
10
99.489
20
-97.7705
11
99.5843
21
-97.8657
0
LINE
8
BLACK
6
CONTINUOUS
10
99.5843
20
-97.8657
11
99.6795
21
-97.7705
0
LINE
8
BLACK
6
CONTINUOUS
10
99.6795
20
-97.7705
11
99.5843
21
-97.6752
0
LINE
8
BLACK
6
CONTINUOUS
10
99.5843
20
-97.6752
11
99.5843
21
-97.8657
0
LINE
8
BLACK
6
CONTINUOUS
10
100.822
20
-99.6752
11
100.632
21
-99.58
0
LINE
8
BLACK
6
CONTINUOUS
10
100.632
20
-99.58
11
100.537
21
-99.3895
0
LINE
8
BLACK
6
CONTINUOUS
10
100.537
20
-99.3895
11
100.537
21
-97.6752
0
LINE
8
BLACK
6
CONTINUOUS
10
101.87
20
-99.6752
11
101.68
21
-99.58
0
LINE
8
BLACK
6
CONTINUOUS
10
101.68
20
-99.58
11
101.584
21
-99.3895
0
LINE
8
BLACK
6
CONTINUOUS
10
101.584
20
-99.3895
11
101.584
21
-97.6752
0
LINE
8
BLACK
6
CONTINUOUS
10
104.156
20
-99.6752
11
104.156
21
-97.6752
0
LINE
8
BLACK
6
CONTINUOUS
10
104.156
20
-97.6752
11
104.822
21
-99.1038
0
LINE
8
BLACK
6
CONTINUOUS
10
104.822
20
-99.1038
11
105.489
21
-97.6752
0
LINE
8
BLACK
6
CONTINUOUS
10
105.489
20
-97.6752
11
105.489
21
-99.6752
0
LINE
8
BLACK
6
CONTINUOUS
10
107.299
20
-99.6752
11
107.299
21
-98.6276
0
LINE
8
BLACK
6
CONTINUOUS
10
107.299
20
-98.6276
11
107.203
21
-98.4371
0
LINE
8
BLACK
6
CONTINUOUS
10
107.203
20
-98.4371
11
107.013
21
-98.3419
0
LINE
8
BLACK
6
CONTINUOUS
10
107.013
20
-98.3419
11
106.632
21
-98.3419
0
LINE
8
BLACK
6
CONTINUOUS
10
106.632
20
-98.3419
11
106.441
21
-98.4371
0
LINE
8
BLACK
6
CONTINUOUS
10
107.299
20
-99.58
11
107.108
21
-99.6752
0
LINE
8
BLACK
6
CONTINUOUS
10
107.108
20
-99.6752
11
106.632
21
-99.6752
0
LINE
8
BLACK
6
CONTINUOUS
10
106.632
20
-99.6752
11
106.441
21
-99.58
0
LINE
8
BLACK
6
CONTINUOUS
10
106.441
20
-99.58
11
106.346
21
-99.3895
0
LINE
8
BLACK
6
CONTINUOUS
10
106.346
20
-99.3895
11
106.346
21
-99.199
0
LINE
8
BLACK
6
CONTINUOUS
10
106.346
20
-99.199
11
106.441
21
-99.0086
0
LINE
8
BLACK
6
CONTINUOUS
10
106.441
20
-99.0086
11
106.632
21
-98.9133
0
LINE
8
BLACK
6
CONTINUOUS
10
106.632
20
-98.9133
11
107.108
21
-98.9133
0
LINE
8
BLACK
6
CONTINUOUS
10
107.108
20
-98.9133
11
107.299
21
-98.8181
0
LINE
8
BLACK
6
CONTINUOUS
10
108.251
20
-98.3419
11
108.251
21
-100.342
0
LINE
8
BLACK
6
CONTINUOUS
10
108.251
20
-98.4371
11
108.441
21
-98.3419
0
LINE
8
BLACK
6
CONTINUOUS
10
108.441
20
-98.3419
11
108.822
21
-98.3419
0
LINE
8
BLACK
6
CONTINUOUS
10
108.822
20
-98.3419
11
109.013
21
-98.4371
0
LINE
8
BLACK
6
CONTINUOUS
10
109.013
20
-98.4371
11
109.108
21
-98.5324
0
LINE
8
BLACK
6
CONTINUOUS
10
109.108
20
-98.5324
11
109.203
21
-98.7229
0
LINE
8
BLACK
6
CONTINUOUS
10
109.203
20
-98.7229
11
109.203
21
-99.2943
0
LINE
8
BLACK
6
CONTINUOUS
10
109.203
20
-99.2943
11
109.108
21
-99.4848
0
LINE
8
BLACK
6
CONTINUOUS
10
109.108
20
-99.4848
11
109.013
21
-99.58
0
LINE
8
BLACK
6
CONTINUOUS
10
109.013
20
-99.58
11
108.822
21
-99.6752
0
LINE
8
BLACK
6
CONTINUOUS
10
108.822
20
-99.6752
11
108.441
21
-99.6752
0
LINE
8
BLACK
6
CONTINUOUS
10
108.441
20
-99.6752
11
108.251
21
-99.58
0
LINE
8
BLACK
6
CONTINUOUS
10
110.06
20
-99.4848
11
110.156
21
-99.58
0
LINE
8
BLACK
6
CONTINUOUS
10
110.156
20
-99.58
11
110.06
21
-99.6752
0
LINE
8
BLACK
6
CONTINUOUS
10
110.06
20
-99.6752
11
109.965
21
-99.58
0
LINE
8
BLACK
6
CONTINUOUS
10
109.965
20
-99.58
11
110.06
21
-99.4848
0
LINE
8
BLACK
6
CONTINUOUS
10
110.06
20
-99.4848
11
110.06
21
-99.6752
0
LINE
8
BLACK
6
CONTINUOUS
10
110.06
20
-98.4371
11
110.156
21
-98.5324
0
LINE
8
BLACK
6
CONTINUOUS
10
110.156
20
-98.5324
11
110.06
21
-98.6276
0
LINE
8
BLACK
6
CONTINUOUS
10
110.06
20
-98.6276
11
109.965
21
-98.5324
0
LINE
8
BLACK
6
CONTINUOUS
10
109.965
20
-98.5324
11
110.06
21
-98.4371
0
LINE
8
BLACK
6
CONTINUOUS
10
110.06
20
-98.4371
11
110.06
21
-98.6276
  0
ENDSEC
  0
EOF
