G04 #@! TF.GenerationSoftware,KiCad,Pcbnew,7.0.1*
G04 #@! TF.CreationDate,2023-06-18T22:29:12+02:00*
G04 #@! TF.ProjectId,morsinator-3000,6d6f7273-696e-4617-946f-722d33303030,rev?*
G04 #@! TF.SameCoordinates,Original*
G04 #@! TF.FileFunction,Legend,Bot*
G04 #@! TF.FilePolarity,Positive*
%FSLAX46Y46*%
G04 Gerber Fmt 4.6, Leading zero omitted, Abs format (unit mm)*
G04 Created by KiCad (PCBNEW 7.0.1) date 2023-06-18 22:29:12*
%MOMM*%
%LPD*%
G01*
G04 APERTURE LIST*
%ADD10R,1.500000X1.500000*%
%ADD11C,1.500000*%
%ADD12C,5.000000*%
%ADD13R,1.905000X2.000000*%
%ADD14O,1.905000X2.000000*%
%ADD15O,2.000000X1.905000*%
%ADD16R,2.000000X1.905000*%
%ADD17R,2.400000X2.400000*%
%ADD18C,2.400000*%
%ADD19O,2.400000X2.400000*%
%ADD20C,3.600000*%
%ADD21C,5.600000*%
%ADD22C,1.600000*%
%ADD23O,1.600000X1.600000*%
%ADD24R,1.800000X1.800000*%
%ADD25C,1.800000*%
%ADD26R,1.700000X1.700000*%
%ADD27C,1.700000*%
%ADD28C,3.500000*%
%ADD29R,1.200000X1.200000*%
%ADD30C,1.200000*%
%ADD31R,1.950000X1.950000*%
%ADD32C,1.950000*%
%ADD33O,1.700000X1.700000*%
%ADD34R,1.600000X1.600000*%
G04 APERTURE END LIST*
%LPC*%
D10*
G04 #@! TO.C,Q5*
X171450000Y-45720000D03*
D11*
X171450000Y-48260000D03*
X171450000Y-50800000D03*
G04 #@! TD*
D12*
G04 #@! TO.C,U1*
X111680000Y-23880000D03*
D13*
X109140000Y-40540000D03*
D14*
X111680000Y-40540000D03*
X114220000Y-40540000D03*
G04 #@! TD*
D15*
G04 #@! TO.C,U4*
X146177000Y-25400000D03*
X146177000Y-27940000D03*
D16*
X146177000Y-30480000D03*
D12*
X129517000Y-27940000D03*
G04 #@! TD*
D10*
G04 #@! TO.C,Q1*
X121793000Y-66040000D03*
D11*
X124333000Y-66040000D03*
X126873000Y-66040000D03*
G04 #@! TD*
D17*
G04 #@! TO.C,J5*
X153670000Y-88900000D03*
D18*
X158750000Y-88900000D03*
G04 #@! TD*
D17*
G04 #@! TO.C,D5*
X129460000Y-81260000D03*
D19*
X129460000Y-71100000D03*
G04 #@! TD*
D20*
G04 #@! TO.C,H1*
X99000000Y-91420000D03*
D21*
X99000000Y-91420000D03*
G04 #@! TD*
D22*
G04 #@! TO.C,R16*
X109140000Y-73640000D03*
D23*
X109140000Y-81260000D03*
G04 #@! TD*
D24*
G04 #@! TO.C,D1*
X99060000Y-52070000D03*
D25*
X99060000Y-49530000D03*
G04 #@! TD*
D22*
G04 #@! TO.C,R7*
X151130000Y-71120000D03*
D23*
X151130000Y-63500000D03*
G04 #@! TD*
D22*
G04 #@! TO.C,C6*
X151300000Y-22840000D03*
X156300000Y-22840000D03*
G04 #@! TD*
G04 #@! TO.C,R8*
X177720000Y-31730000D03*
D23*
X177720000Y-39350000D03*
G04 #@! TD*
D22*
G04 #@! TO.C,R9*
X124380000Y-81260000D03*
D23*
X124380000Y-73640000D03*
G04 #@! TD*
D22*
G04 #@! TO.C,R5*
X147955000Y-38080000D03*
D23*
X155575000Y-38080000D03*
G04 #@! TD*
D10*
G04 #@! TO.C,Q4*
X171390000Y-33000000D03*
D11*
X171390000Y-35540000D03*
X171390000Y-38080000D03*
G04 #@! TD*
D26*
G04 #@! TO.C,J4*
X173970000Y-81052500D03*
D27*
X171470000Y-81052500D03*
X171470000Y-83052500D03*
X173970000Y-83052500D03*
D28*
X178740000Y-85762500D03*
X166700000Y-85762500D03*
G04 #@! TD*
D22*
G04 #@! TO.C,C2*
X116840000Y-45720000D03*
X116840000Y-50720000D03*
G04 #@! TD*
G04 #@! TO.C,R14*
X134540000Y-81260000D03*
D23*
X134540000Y-73640000D03*
G04 #@! TD*
D22*
G04 #@! TO.C,R11*
X97790000Y-60960000D03*
D23*
X97790000Y-68580000D03*
G04 #@! TD*
D29*
G04 #@! TO.C,C3*
X112950000Y-48240000D03*
D30*
X110950000Y-48240000D03*
G04 #@! TD*
D22*
G04 #@! TO.C,R12*
X139620000Y-73640000D03*
D23*
X139620000Y-81260000D03*
G04 #@! TD*
D22*
G04 #@! TO.C,C1*
X106600000Y-45700000D03*
X106600000Y-50700000D03*
G04 #@! TD*
G04 #@! TO.C,R3*
X162500000Y-31730000D03*
D23*
X162500000Y-24110000D03*
G04 #@! TD*
D17*
G04 #@! TO.C,D4*
X132000000Y-62230000D03*
D19*
X142160000Y-62230000D03*
G04 #@! TD*
D22*
G04 #@! TO.C,R13*
X140890000Y-68580000D03*
D23*
X133270000Y-68580000D03*
G04 #@! TD*
D29*
G04 #@! TO.C,C5*
X153760000Y-26650000D03*
D30*
X153760000Y-28650000D03*
G04 #@! TD*
D22*
G04 #@! TO.C,C4*
X151170000Y-33020000D03*
X156170000Y-33020000D03*
G04 #@! TD*
D20*
G04 #@! TO.C,H3*
X185360000Y-22840000D03*
D21*
X185360000Y-22840000D03*
G04 #@! TD*
D10*
G04 #@! TO.C,S2*
X169470000Y-22515000D03*
D11*
X175970000Y-22515000D03*
X169470000Y-27015000D03*
X175970000Y-27015000D03*
G04 #@! TD*
D17*
G04 #@! TO.C,D3*
X144700000Y-81260000D03*
D19*
X144700000Y-71100000D03*
G04 #@! TD*
D10*
G04 #@! TO.C,S1*
X160250000Y-48950000D03*
D11*
X160250000Y-42450000D03*
X164750000Y-48950000D03*
X164750000Y-42450000D03*
G04 #@! TD*
D22*
G04 #@! TO.C,R2*
X99060000Y-37846000D03*
D23*
X99060000Y-45466000D03*
G04 #@! TD*
D20*
G04 #@! TO.C,H4*
X98980000Y-22840000D03*
D21*
X98980000Y-22840000D03*
G04 #@! TD*
D20*
G04 #@! TO.C,H2*
X185360000Y-91420000D03*
D21*
X185360000Y-91420000D03*
G04 #@! TD*
D22*
G04 #@! TO.C,R18*
X165100000Y-54610000D03*
D23*
X157480000Y-54610000D03*
G04 #@! TD*
D31*
G04 #@! TO.C,J3*
X144700000Y-88880000D03*
D32*
X139620000Y-88880000D03*
X134540000Y-88880000D03*
X129460000Y-88880000D03*
X124380000Y-88880000D03*
X119300000Y-88880000D03*
X114220000Y-88880000D03*
X109140000Y-88880000D03*
G04 #@! TD*
D22*
G04 #@! TO.C,R4*
X119300000Y-73640000D03*
D23*
X119300000Y-81260000D03*
G04 #@! TD*
D22*
G04 #@! TO.C,R6*
X120570000Y-58400000D03*
D23*
X128190000Y-58400000D03*
G04 #@! TD*
D22*
G04 #@! TO.C,R15*
X114220000Y-81260000D03*
D23*
X114220000Y-73640000D03*
G04 #@! TD*
D10*
G04 #@! TO.C,Q2*
X152320000Y-58400000D03*
D11*
X152320000Y-55860000D03*
X152320000Y-53320000D03*
G04 #@! TD*
D24*
G04 #@! TO.C,D6*
X184090000Y-48240000D03*
D25*
X186630000Y-48240000D03*
G04 #@! TD*
D26*
G04 #@! TO.C,J2*
X159940000Y-76180000D03*
D33*
X157400000Y-76180000D03*
X154860000Y-76180000D03*
X152320000Y-76180000D03*
G04 #@! TD*
D26*
G04 #@! TO.C,J1*
X159960000Y-71100000D03*
D33*
X157420000Y-71100000D03*
X159960000Y-68560000D03*
X157420000Y-68560000D03*
X159960000Y-66020000D03*
X157420000Y-66020000D03*
G04 #@! TD*
D22*
G04 #@! TO.C,R10*
X104060000Y-60960000D03*
D23*
X104060000Y-68580000D03*
G04 #@! TD*
D10*
G04 #@! TO.C,Q3*
X121920000Y-50780000D03*
D11*
X124460000Y-50780000D03*
X127000000Y-50780000D03*
G04 #@! TD*
D22*
G04 #@! TO.C,R1*
X158690000Y-38080000D03*
D23*
X166310000Y-38080000D03*
G04 #@! TD*
D34*
G04 #@! TO.C,U3*
X140880000Y-48270000D03*
D23*
X138340000Y-48270000D03*
X135800000Y-48270000D03*
X133260000Y-48270000D03*
X133260000Y-55890000D03*
X135800000Y-55890000D03*
X138340000Y-55890000D03*
X140880000Y-55890000D03*
G04 #@! TD*
D11*
G04 #@! TO.C,S3*
X150070000Y-48950000D03*
X150070000Y-42450000D03*
X154570000Y-48950000D03*
D10*
X154570000Y-42450000D03*
G04 #@! TD*
G04 #@! TO.C,S4*
X103560000Y-74220000D03*
D11*
X103560000Y-80720000D03*
X99060000Y-74220000D03*
X99060000Y-80720000D03*
G04 #@! TD*
D24*
G04 #@! TO.C,D2*
X184090000Y-35540000D03*
D25*
X186630000Y-35540000D03*
G04 #@! TD*
D22*
G04 #@! TO.C,C7*
X144700000Y-54570000D03*
X144700000Y-49570000D03*
G04 #@! TD*
G04 #@! TO.C,R17*
X137100000Y-41910000D03*
D23*
X144720000Y-41910000D03*
G04 #@! TD*
D22*
G04 #@! TO.C,R19*
X177720000Y-44430000D03*
D23*
X177720000Y-52050000D03*
G04 #@! TD*
M02*
